HIERARCHY
ROOT Hips
{
  OFFSET 13.6774 106.653 -34.4427
  CHANNELS 6 Xposition Yposition Zposition Zrotation Xrotation Yrotation
  JOINT ToSpine
  {
    OFFSET -2.69724 7.43032 -0.144315
    CHANNELS 3 Zrotation Xrotation Yrotation
    JOINT Spine
    {
      OFFSET -0.0310711 10.7595 1.96963
      CHANNELS 3 Zrotation Xrotation Yrotation
      JOINT Spine1
      {
        OFFSET 19.9056 3.91189 0.764692
        CHANNELS 3 Zrotation Xrotation Yrotation
        JOINT Neck
        {
          OFFSET 25.9749 7.03908 -0.130764
          CHANNELS 3 Zrotation Xrotation Yrotation
          JOINT Head
          {
            OFFSET 9.52751 0.295786 -0.907742
            CHANNELS 3 Zrotation Xrotation Yrotation
            End Site
            {
              OFFSET 16.4037 0.713936 2.7358
            }
          }
        }
        JOINT LeftShoulder
        {
          OFFSET 17.7449 4.33886 11.7777
          CHANNELS 3 Zrotation Xrotation Yrotation
          JOINT LeftArm
          {
            OFFSET 0.911315 1.27913 9.80584
            CHANNELS 3 Zrotation Xrotation Yrotation
            JOINT LeftForeArm
            {
              OFFSET 28.6126 1.18197 -3.53199
              CHANNELS 3 Zrotation Xrotation Yrotation
              JOINT LeftHand
              {
                OFFSET 27.5088 0.0218783 0.327423
                CHANNELS 3 Zrotation Xrotation Yrotation
                End Site
                {
                  OFFSET 18.6038 -0.000155887 0.382096
                }
              }
            }
          }
        }
        JOINT RightShoulder
        {
          OFFSET 17.1009 2.89543 -12.2328
          CHANNELS 3 Zrotation Xrotation Yrotation
          JOINT RightArm
          {
            OFFSET 1.4228 0.178766 -10.211
            CHANNELS 3 Zrotation Xrotation Yrotation
            JOINT RightForeArm
            {
              OFFSET 28.733 1.87905 2.64907
              CHANNELS 3 Zrotation Xrotation Yrotation
              JOINT RightHand
              {
                OFFSET 27.4588 0.290562 -0.101845
                CHANNELS 3 Zrotation Xrotation Yrotation
                End Site
                {
                  OFFSET 17.8396 -0.255518 -0.000602873
                }
              }
            }
          }
        }
      }
    }
  }
  JOINT LeftUpLeg
  {
    OFFSET -5.61296 -2.22332 -10.2353
    CHANNELS 3 Zrotation Xrotation Yrotation
    JOINT LeftLeg
    {
      OFFSET 2.56703 -44.7417 -7.93097
      CHANNELS 3 Zrotation Xrotation Yrotation
      JOINT LeftFoot
      {
        OFFSET 3.16933 -46.5642 -3.96578
        CHANNELS 3 Zrotation Xrotation Yrotation
        JOINT LeftToeBase
        {
          OFFSET 0.346054 -6.02161 12.8035
          CHANNELS 3 Zrotation Xrotation Yrotation
          End Site
          {
            OFFSET 0.134235 -1.35082 5.13018
          }
        }
      }
    }
  }
  JOINT RightUpLeg
  {
    OFFSET -5.7928 -1.72406 10.6446
    CHANNELS 3 Zrotation Xrotation Yrotation
    JOINT RightLeg
    {
      OFFSET -2.57161 -44.7178 -7.85259
      CHANNELS 3 Zrotation Xrotation Yrotation
      JOINT RightFoot
      {
        OFFSET -3.10148 -46.5936 -4.03391
        CHANNELS 3 Zrotation Xrotation Yrotation
        JOINT RightToeBase
        {
          OFFSET -0.0828122 -6.13587 12.8035
          CHANNELS 3 Zrotation Xrotation Yrotation
          End Site
          {
            OFFSET -0.131328 -1.35082 5.13018
          }
        }
      }
    }
  }
}
MOTION
Frames: 21
Frame Time: 0.03333333333333333
0.0000 93.1000 0.0000 31.0169 -50.8668 -71.9097 -70.9016 -0.2533 87.9855 119.7263 70.4757 -33.8027 -4.4392 22.4828 3.2515 -167.0555 35.0715 -177.1075 -150.9167 74.2781 -174.8036 0.4477 -12.2910 -31.8428 -69.6174 55.9997 -67.8648 14.6938 9.1605 -58.9843 0.3526 -0.5322 0.5388 -2.5784 5.6786 47.7528 -72.6399 -23.2269 80.3349 23.8514 -12.4048 64.8445 0.3205 -0.5005 0.0347 -46.8895 0.1331 90.1573 -56.0779 83.6512 42.5013 -6.6570 2.8997 1.1189 3.0016 -11.0480 9.7681 -20.8372 0.9653 75.7938 1.1434 58.1442 -10.9145 -8.2725 -31.8489 0.7945 3.7893 3.1424 -24.8596 
0.0000 93.1000 0.0000 23.7953 -51.7644 -78.3508 -70.9491 -0.2297 87.9809 126.7748 70.6871 -40.9456 -5.6865 24.1984 3.7231 -168.9051 35.3436 -176.8516 -148.2345 74.5920 -178.1656 0.2981 -12.0029 -30.7782 -63.3801 57.6878 -69.7358 15.4147 11.5358 -52.9070 0.0801 -0.4095 0.3495 -2.5001 6.7772 43.8631 -76.8103 -24.8408 88.2795 29.0287 -12.0494 70.0658 0.2503 -0.4564 0.2476 -32.8728 1.2009 90.7922 -150.9912 79.4872 140.8146 -3.8663 3.5718 0.5457 3.7123 -10.1508 9.9621 -27.5531 2.7131 75.5547 1.4628 55.0665 -11.0440 -8.1723 -36.6676 1.1176 3.4073 2.7163 -19.8452 
0.0000 93.1000 0.0000 17.8289 -50.9921 -85.6617 -70.9295 -0.2076 88.0899 131.6396 71.8394 -47.2130 -7.0267 26.7322 4.2086 -171.6967 35.5368 -177.5437 -146.6833 74.7321 180.2206 -0.1025 -11.8703 -29.5293 -57.7197 60.2656 -69.0983 16.5091 11.9527 -56.0076 -0.1136 0.0711 -0.1539 -2.2464 6.5635 40.3422 -78.8281 -29.1779 94.5672 31.2249 -8.0700 78.1070 -0.2255 -0.0407 -0.1910 -19.8276 1.1618 91.5789 -158.8348 76.1114 150.2665 -1.6751 3.0523 -0.1879 2.9030 -10.2312 10.0963 -36.0344 2.5715 76.5526 2.3679 49.8965 -2.9544 -8.1181 -36.4909 1.7057 2.9018 -0.7672 -24.1357 
0.0000 93.1000 0.0000 14.1097 -51.5683 -90.9260 -70.9255 -0.3017 88.1245 138.1799 73.5711 -55.0604 -9.7852 28.9789 3.7711 -168.5677 36.3778 -181.4699 -145.8859 75.9284 177.5000 0.3684 -12.3238 -28.1961 -54.0815 61.7417 -66.2013 17.5206 10.4691 -59.6155 -0.1100 -0.3723 0.2927 -2.3457 7.0682 37.9163 -79.1705 -33.3061 98.4495 34.1662 -3.9554 83.8569 0.5602 -0.5616 0.2682 -10.1279 0.9780 92.9590 -145.8871 80.3908 138.0769 -0.8201 1.3070 -0.0906 2.6012 -9.9037 10.1899 -46.8989 1.5735 77.8828 1.1787 40.9855 -1.0517 -6.2633 -25.9634 1.1267 2.5959 -13.9302 -11.5189 
0.0000 93.1000 0.0000 11.8707 -50.9121 -93.2469 -70.8914 -0.2489 88.1605 137.9120 75.4342 -54.0382 -10.3301 30.3209 3.1846 -170.0708 36.9399 -180.7753 -147.2466 76.6210 177.7150 0.2089 -12.4602 -25.5796 -54.4881 63.7165 -62.4610 16.8604 9.1712 -62.8543 0.1252 -0.0624 0.0743 -2.1313 7.5983 35.4186 -77.4807 -37.2993 101.6227 36.5574 -0.1214 88.8707 0.3847 -0.1499 -0.2121 -2.5681 -0.2420 93.5728 -36.0291 82.8157 27.9582 -2.3637 0.3623 -0.0404 1.9259 -9.2080 8.2836 -56.0654 -0.4042 78.8110 1.6531 33.9416 -0.6386 -6.0250 -9.0990 0.6812 2.5626 -23.5729 4.9726 
0.0000 93.1000 0.0000 12.2970 -49.8275 -93.8815 -70.8924 -0.2282 88.1776 134.9112 76.6245 -49.9687 -9.8295 31.3379 1.2136 -171.9865 36.8803 -180.2497 -146.1100 77.0758 176.0694 0.0140 -13.0765 -24.8389 -57.5234 65.2582 -57.2742 16.1461 7.3156 -65.2500 0.0129 0.0722 -0.1444 -2.0333 7.9182 33.0627 -75.0653 -40.7901 101.0156 37.9850 2.9775 93.4680 0.1237 -0.0418 -0.1664 0.1586 -1.9799 95.2044 -8.6914 66.2177 -3.9304 -5.4172 1.3281 0.4964 3.1591 -11.4259 11.3951 -62.2122 -1.6317 78.6922 1.2193 31.0419 6.1802 -2.6924 9.2305 -0.6507 1.8643 -19.1570 7.5466 
0.0000 93.1000 0.0000 8.9080 -48.7781 -95.3078 -70.9108 -0.1358 88.1315 132.1717 77.9302 -46.1067 -8.7072 31.6197 0.3633 -174.7785 36.7821 -178.2043 -150.8686 76.9879 175.5751 -0.4899 -13.2053 -26.0309 -61.1655 65.2218 -55.1969 15.7028 6.8853 -67.0106 0.2829 0.5800 -0.5213 -2.0271 8.2812 32.0950 -70.8543 -41.1002 101.6407 38.0536 4.0317 94.9039 -0.0026 0.3943 -0.6422 -0.9567 -2.1662 96.5296 -4.6277 48.7636 -14.5517 -7.4183 3.0838 0.4658 6.1225 -16.3378 14.0685 -67.1138 0.6127 82.6042 0.0635 30.4378 16.2888 -1.5527 16.8766 -1.0485 2.6188 -15.6833 -21.1999 
0.0000 93.1000 0.0000 6.8949 -49.5050 -94.9261 -70.8499 -0.1401 88.1149 128.9347 79.0867 -41.9789 -7.5977 31.1238 -0.0142 -172.6791 35.8910 177.6136 -148.8886 76.3376 173.6722 -0.1612 -12.1540 -25.8196 -65.2814 63.8956 -53.1136 15.3906 5.2913 -69.5954 -0.2008 0.4664 -0.3630 -2.0772 8.1448 33.2595 -67.9061 -41.0934 100.8096 34.1022 1.8773 92.9174 -0.3090 0.2823 -0.4214 -1.0732 -0.2644 98.6791 -3.2928 42.8006 -16.3662 -10.3764 3.3172 0.9241 9.8292 -20.9920 15.6208 -67.9998 5.8876 91.3632 2.0295 40.8226 -4.5995 -4.4599 13.1678 0.0685 0.8099 -9.8678 -5.4795 
0.0000 93.1000 0.0000 5.7947 -52.7585 -94.3285 -70.8637 -0.1522 88.0913 127.9707 77.0268 -41.3348 -7.1706 29.5429 1.1558 -166.7159 34.3295 172.4465 -148.7059 74.6247 179.3310 -0.2024 -12.6290 -27.0950 -70.6639 62.0792 -51.3934 17.0196 5.4206 -72.2378 0.0598 0.3783 -0.5207 -2.2330 7.4759 36.8197 -65.4965 -40.7017 96.9180 30.4515 -1.8893 86.9027 -0.2675 0.2297 -0.4748 -5.0032 -0.1803 99.7786 -5.2477 46.2764 -15.6623 -8.9184 1.7242 0.5159 9.4049 -21.7293 14.3377 -66.9518 7.6989 89.3157 2.3907 57.3761 -6.1666 -2.0828 10.8574 -0.0936 2.1054 -4.9759 -13.8291 
0.0000 93.1000 0.0000 7.3092 -55.7277 -92.5475 -70.9203 -0.2174 88.0096 125.9847 74.8644 -43.2064 -7.3854 27.6814 2.8770 -160.6534 33.4860 172.5040 -154.3629 73.7752 -171.6142 0.3055 -13.0879 -29.2505 -74.8371 56.9718 -52.0283 16.5300 4.2226 -73.8163 -0.0866 -0.4180 -0.3845 -2.7038 7.0988 40.4849 -65.2124 -39.3872 91.5477 27.3339 -4.9033 79.8420 0.2952 -0.4199 -0.3232 -10.2358 -1.8832 98.1815 -5.3637 55.9781 -11.7605 -1.8889 -8.7656 -0.5932 1.8367 -5.8612 8.3773 -61.0768 5.8547 84.7330 8.7370 77.3685 -18.4647 -4.6333 9.9276 -0.0222 1.4209 -4.8397 -9.3393 
0.0000 93.1000 0.0000 5.4474 -57.5766 -96.5389 -70.9046 -0.3701 87.9622 120.1140 73.9811 -42.7819 -6.2816 26.0940 3.9056 -162.5096 32.0914 170.1868 -155.0834 71.6470 -170.5432 0.7137 -12.6276 -32.8703 -78.9375 50.9865 -57.1440 17.8595 4.3456 -75.8107 -0.0958 -0.6776 0.9831 -2.8182 5.4187 44.4069 -66.3988 -38.4476 85.8079 26.4308 -10.1218 71.8930 0.2610 -0.6627 0.7015 -15.7565 -3.4487 98.5780 -7.8845 61.7296 -11.9249 1.2425 -14.0223 -1.5126 4.6510 -14.1032 15.0512 -50.1600 0.6354 83.2088 158.4484 81.2236 -172.8304 -8.8852 7.6733 0.8385 0.7788 -5.9887 -5.2459 
0.0000 93.1000 0.0000 6.0934 -57.0099 -97.6159 -70.8345 -0.1275 87.9865 112.9037 72.2664 -39.5569 -5.9026 23.8563 4.2009 -164.5497 30.2173 170.6232 -152.8152 68.6947 -172.4706 -0.8410 -14.6147 -31.7609 -79.9589 47.9568 -65.0083 16.0851 4.1521 -76.2011 0.0080 0.1747 -1.4316 -3.0663 7.2495 45.6489 -66.6179 -39.0722 79.4952 22.7926 -10.5094 66.0169 -0.1624 0.3375 -0.3887 -23.0392 -4.6005 98.6432 -8.6227 61.6809 -13.4749 -0.0986 -18.4927 -2.5126 5.2524 -14.8159 16.2667 -35.2341 -1.9324 82.9235 169.4179 69.0657 173.4451 -15.4918 7.8039 2.3188 1.1920 -14.0955 2.1240 
0.0000 93.1000 0.0000 7.2164 -56.4793 -94.6146 -70.8127 -0.2456 87.9937 109.8572 70.5943 -32.9485 -6.2685 20.9118 4.0426 -163.5382 28.0782 171.5204 -154.3395 66.8130 -169.6535 -0.0004 -14.1739 -30.8065 -82.7492 44.7707 -67.1452 15.0482 1.8881 -81.1043 -0.0417 -0.2955 -0.2662 -3.0761 5.9544 47.2033 -65.0741 -40.7450 70.8787 18.0982 -9.3750 65.2478 -0.0893 -0.2173 0.1715 -31.8810 -4.0100 95.8481 -7.1613 58.9821 -15.3111 -0.4778 -20.4949 -2.2921 7.1709 -17.0624 15.2026 -21.3324 -2.5262 81.6000 169.5307 68.5113 174.1210 -16.0206 7.2786 2.3561 1.8601 -19.7826 -1.6279 
0.0000 93.1000 0.0000 3.3385 -55.6722 -98.1730 -70.8003 -0.2962 88.0002 104.9984 69.5960 -25.2343 -6.1794 19.4722 1.8358 -163.4518 24.6723 171.2782 -154.0748 63.9570 -172.3831 0.4870 -13.0258 -29.0132 -87.0320 44.9642 -64.9505 15.7302 0.4639 -88.9014 -0.0094 -0.4651 0.3486 -2.9359 6.2550 46.9691 -61.8821 -42.0617 64.7416 22.4489 -9.8016 67.8177 0.1928 -0.4088 0.5061 -42.8352 -2.8109 94.7110 -6.0264 50.6311 -15.7813 -2.9372 -14.9145 -1.3758 10.0294 -22.2009 10.5195 -11.0299 -1.2390 82.3571 166.3627 75.1891 178.6216 -15.8375 4.3141 2.3429 1.9672 -20.0435 -3.2327 
0.0000 93.1000 0.0000 0.3344 -55.6532 -98.7936 -70.8658 -0.1884 87.9620 102.7219 68.3564 -22.2085 -6.1340 18.2016 2.8044 -164.5409 22.4644 173.2591 -152.1604 61.9480 -175.5769 0.4526 -12.1746 -28.3319 -90.0016 44.8795 -62.9673 15.0003 -3.2736 -97.0801 -0.2010 0.2324 0.5452 -2.5943 6.2653 46.1002 -59.8638 -44.6877 58.4172 20.8189 -8.7840 68.1542 -0.1685 0.4103 -0.2230 -53.8255 -1.8502 91.7667 -4.0116 40.5929 -15.1039 -6.2103 -2.4305 -0.5257 10.9349 -24.0425 2.0607 -6.9291 -0.0845 82.3524 90.6397 86.9364 -100.9280 -10.8454 2.2690 1.9300 1.8639 -20.0838 -6.6262 
0.0000 93.1000 0.0000 -3.7846 -56.6950 -101.9413 -70.8846 -0.0876 87.9947 101.5740 67.5765 -18.7853 -4.9708 17.5545 2.0031 -165.5186 20.7163 172.8809 -152.7604 59.9345 -175.9823 -0.0003 -12.3554 -27.8870 -90.7375 43.8121 -62.2773 15.2669 -5.0700 -104.0601 0.2205 0.4832 -0.1753 -2.4879 7.3709 43.8801 -63.0860 -46.1932 51.2708 21.6943 -8.8644 69.6536 0.0234 0.6913 -0.6159 -64.9892 -0.9127 89.8995 -2.8037 32.4724 -16.2001 -9.6284 8.7720 0.9732 6.3305 -13.6478 -2.0605 -7.0608 1.8789 82.4578 5.6673 70.2951 -11.2149 -8.9121 1.6999 1.4834 2.1901 -21.0260 -8.7919 
0.0000 93.1000 0.0000 -4.8205 -56.7177 -104.0635 -70.9073 -0.3390 88.0662 96.7538 67.8068 -13.0668 -4.2911 17.4113 2.0130 -167.4334 19.9846 176.4768 -156.7737 59.7422 -174.2124 1.0839 -12.0289 -28.1728 -88.9616 45.0109 -63.0655 15.0578 -4.7169 -107.1333 -0.2558 -0.8422 0.4237 -2.3836 7.1968 42.2811 -67.9929 -46.4535 46.4683 23.7600 -9.0508 72.0772 1.2037 -0.8442 0.2801 -70.2318 -1.8258 86.0511 -3.1697 34.7254 -13.6532 -6.9360 10.4031 2.1742 0.6501 -4.9037 6.5433 -10.0939 0.8033 82.4939 1.9204 47.2799 -1.9901 -5.8826 2.4693 -0.0530 1.7138 -21.8092 -16.2403 
0.0000 93.1000 0.0000 -6.5818 -55.6043 -107.9105 -70.9332 -0.1738 88.0517 92.8858 67.5036 -8.9587 -3.1288 17.1239 2.8444 -169.3897 18.8465 -181.2244 -158.8981 59.0472 -173.2171 -0.1476 -13.5939 -28.9938 -86.1100 45.9345 -64.3651 15.0425 -4.8505 -106.0285 -0.1550 0.1393 -0.4819 -2.2421 6.9606 40.8654 -70.2483 -43.8958 45.4110 21.7817 -8.1751 72.8484 0.1390 0.3305 -0.1009 -69.9915 -4.6982 86.6901 -3.9188 45.7743 -7.4471 -8.2142 7.6874 1.2470 -0.2899 -3.8825 7.4706 -10.9211 0.7693 83.5955 0.7703 31.3285 3.0057 -1.3131 5.8522 -0.5011 1.0334 -21.8315 -25.7229 
0.0000 93.1000 0.0000 -7.7715 -56.7766 -109.6801 -70.9154 -0.2024 88.0452 94.8337 67.5490 -11.3336 -3.8680 17.2196 3.1652 -167.4295 18.9385 -178.9948 -160.9061 59.5669 -171.6995 0.0241 -14.1477 -29.6947 -82.8119 46.7795 -66.3988 14.8981 -2.7922 -98.1104 0.1707 0.0118 -0.2714 -2.0267 6.3161 41.9248 -71.9311 -39.9543 48.5926 19.9059 -7.8830 70.9566 -0.1625 0.1813 -0.0642 -67.0838 -6.7447 88.7270 -6.1547 63.3048 -3.0911 -10.7808 7.2102 1.7555 0.6531 -6.0808 7.5245 -11.2090 -1.1416 82.4183 0.8298 34.4354 -0.8806 0.7700 4.2200 -0.9328 2.1111 -14.6076 -12.9467 
0.0000 93.1000 0.0000 -11.7778 -59.7744 -111.7659 -70.9548 -0.2304 87.9833 105.7796 67.3231 -20.0178 -3.9443 17.8940 2.1145 -166.6315 19.8562 -176.1670 -159.7746 59.8119 -168.6758 0.1200 -14.8313 -30.9283 -78.7355 47.9353 -68.6072 12.1652 -0.1134 -90.0643 -0.1519 -0.1940 -0.1968 -2.1039 6.3479 44.0574 -72.9976 -35.2110 54.5976 20.7617 -8.2293 69.8249 -0.1063 0.0157 0.1781 -61.0489 -5.1324 90.9733 -30.6694 81.5213 23.5000 -9.2287 7.4194 1.5609 0.6639 -6.9741 10.7304 -14.9182 -0.5013 78.4839 1.4478 44.3080 0.3953 -6.5355 -7.1487 0.0954 1.8175 5.9387 -15.1391 
0.0000 93.1000 0.0000 -18.6698 -61.4767 -115.6928 -71.0172 -0.1192 87.9684 121.6689 66.6320 -32.6443 -4.8006 19.5253 1.1721 -167.5630 20.0211 -175.0033 -160.6837 60.5570 -166.7817 -0.3790 -14.4151 -32.6881 -76.5542 48.7727 -68.5288 13.0506 1.9910 -81.0912 0.3159 0.2908 -0.1827 -2.4613 6.8903 45.0010 -73.1129 -32.9474 64.3929 21.6888 -8.8625 68.6641 -0.1805 0.3537 -0.1710 -52.9803 0.9530 92.8321 -158.5434 75.2037 154.7795 -3.8643 8.4846 0.3491 2.6624 -8.5677 10.1080 -20.7805 2.9907 77.5214 1.0880 54.3697 -10.6061 -14.7983 -16.2812 2.0050 0.3100 -4.0631 0.6481 
